<svg xmlns="http://www.w3.org/2000/svg" viewBox="0 0 22 22" class="w-6 h-6 fill-chileanFire-500"><path fill-rule="evenodd" d="M5.5 1.834a1.833 1.833 0 0 0-1.833 1.833v14.667A1.834 1.834 0 0 0 5.5 20.167h10.083a2.75 2.75 0 0 0 2.75-2.75V4.584a2.75 2.75 0 0 0-2.75-2.75zm3.667 1.833H5.5v14.667h10.083a.917.917 0 0 0 .917-.917V4.584a.917.917 0 0 0-.917-.917h-.916v8.228c0 .825-.998 1.237-1.58.654l-1.17-1.17-1.17 1.17c-.583.583-1.58.17-1.58-.654zm3.666 0H11v6.037l.262-.262a.926.926 0 0 1 1.31 0l.261.262z" clip-rule="evenodd"></path></svg>